# File created by Blade
# Date/Time:  Mon Sep 29 17:58:21 2014
# Frame Rate: 120.000 fps
#------------------------------------------------------
:FULLY-SPECIFIED
:DEGREES
2328
root -0.836518 2.495016 -7.766303 -33.728173 1.855644 -2.184620
Spine 37.372113 -7.857809 7.649605
Head 18.808550 16.229560 10.363969
LeftShoulder 5.461327 2.777032 22.634050
LeftArm 36.311875 6.809947 -62.659991
LeftForeArm 4.197212 -0.000000 66.507525
LeftHand -22.139510 0.000000 -4.642756
LeftHandThumb1 -26.253704 0.000000 33.147579
RightShoulder -10.734786 3.972066 -25.728001
RightArm -36.655830 -15.205722 103.704875
RightForeArm 35.613509 -0.000000 26.637148
RightHand -17.220851 -0.000000 -61.213097
RightHandThumb1 -24.326973 -0.000000 -32.862282
LeftUpLeg -58.770357 -8.093068 9.617513
LeftLeg 8.609435 -0.000000 -0.000000
LeftFoot 31.851946 -3.014331 -6.229843
LeftToeBase 16.926504 -0.000000 -0.000000
RightUpLeg -100.481898 25.290257 42.998949
RightLeg 103.728700 -0.000000 -0.000000
RightFoot 16.821618 -19.532063 5.469137
RightToeBase -7.800500 -0.000000 0.000000
2329
root -0.831382 2.496209 -7.767884 -33.735760 1.822253 -2.221915
Spine 37.344029 -7.819220 7.586560
Head 18.910620 16.707118 10.291524
LeftShoulder 5.461384 2.675413 22.701710
LeftArm 36.323629 6.627650 -62.643470
LeftForeArm 4.525960 0.000000 66.435121
LeftHand -22.047901 -0.000000 -4.869200
LeftHandThumb1 -26.253704 0.000000 33.147579
RightShoulder -10.732189 3.970444 -25.667124
RightArm -36.589549 -15.187256 103.633311
RightForeArm 35.530295 -0.000000 26.559560
RightHand -17.296432 -0.000000 -61.087101
RightHandThumb1 -24.326973 -0.000000 -32.862282
LeftUpLeg -58.767564 -8.061406 9.592324
LeftLeg 8.622736 -0.000000 -0.000000
LeftFoot 31.869468 -3.179610 -6.327504
LeftToeBase 17.023304 -0.000000 -0.000000
RightUpLeg -100.479918 25.336395 42.922896
RightLeg 103.158211 -0.000000 -0.000000
RightFoot 16.546332 -19.508085 6.089609
RightToeBase -8.376148 -0.000000 0.000000
2330
root -0.838231 2.493845 -7.776237 -33.692606 1.768622 -2.387894
Spine 37.246089 -7.811989 7.703674
Head 18.993638 17.023917 10.119446
LeftShoulder 5.483988 2.648417 22.737373
LeftArm 36.369717 6.458755 -62.557365
LeftForeArm 4.779789 0.000000 66.448056
LeftHand -22.045094 -0.000000 -4.859822
LeftHandThumb1 -26.253704 0.000000 33.147579
RightShoulder -10.767783 3.913478 -25.642585
RightArm -36.494151 -15.183694 103.568926
RightForeArm 35.455652 -0.000000 26.488785
RightHand -17.246369 -0.000000 -60.999972
RightHandThumb1 -24.326973 -0.000000 -32.862282
LeftUpLeg -58.871971 -8.124594 9.830900
LeftLeg 8.656826 -0.000000 -0.000000
LeftFoot 31.940616 -3.209050 -6.492521
LeftToeBase 16.995966 -0.000000 -0.000000
RightUpLeg -100.499857 25.396297 42.976047
RightLeg 102.551310 -0.000000 -0.000000
RightFoot 16.433736 -19.548293 5.922117
RightToeBase -8.962711 -0.000000 0.000000
2331
root -0.831714 2.495082 -7.779454 -33.692613 1.732404 -2.471897
Spine 37.198807 -7.810047 7.726332
Head 19.090308 17.363129 9.991073
LeftShoulder 5.459170 2.651163 22.778926
LeftArm 36.456088 6.275181 -62.560128
LeftForeArm 5.198301 0.000000 66.401796
LeftHand -21.912200 -0.000000 -5.104815
LeftHandThumb1 -26.253704 0.000000 33.147579
RightShoulder -10.767270 3.924393 -25.622948
RightArm -36.458424 -15.159049 103.498593
RightForeArm 35.400397 -0.000000 26.425733
RightHand -17.242845 -0.000000 -60.893378
RightHandThumb1 -24.326973 -0.000000 -32.862282
LeftUpLeg -58.912518 -8.137960 9.879050
LeftLeg 8.716055 -0.000000 -0.000000
LeftFoot 31.977797 -3.282349 -6.696328
LeftToeBase 17.147867 -0.000000 -0.000000
RightUpLeg -100.493453 25.429405 42.983468
RightLeg 102.082976 -0.000000 -0.000000
RightFoot 15.912547 -19.586990 6.152760
RightToeBase -8.390106 -0.000000 0.000000
2332
root -0.823428 2.496832 -7.779783 -33.695800 1.694920 -2.545357
Spine 37.134791 -7.769256 7.754891
Head 19.220139 17.610938 9.908183
LeftShoulder 5.536034 2.369362 22.868116
LeftArm 36.202283 6.261215 -62.622199
LeftForeArm 5.410836 -0.000000 66.451117
LeftHand -22.077725 -0.000000 -4.900143
LeftHandThumb1 -26.253704 0.000000 33.147579
RightShoulder -10.786385 3.923483 -25.578979
RightArm -36.447769 -15.108025 103.395572
RightForeArm 35.325663 -0.000000 26.398901
RightHand -17.306667 -0.000000 -60.807653
RightHandThumb1 -24.326973 -0.000000 -32.862282
LeftUpLeg -58.954021 -8.129581 9.897523
LeftLeg 8.795974 -0.000000 -0.000000
LeftFoot 32.075290 -3.393690 -6.719665
LeftToeBase 17.095780 -0.000000 -0.000000
RightUpLeg -100.471813 25.465440 43.019967
RightLeg 101.636842 -0.000000 -0.000000
RightFoot 15.354478 -19.739824 6.574346
RightToeBase -7.439251 -0.000000 0.000000
2333
root -0.816672 2.498603 -7.781754 -33.682885 1.639170 -2.640232
Spine 37.074088 -7.760408 7.825953
Head 19.303781 17.850136 9.745585
LeftShoulder 5.432027 2.465380 22.834886
LeftArm 36.464801 6.158454 -62.464335
LeftForeArm 5.627718 0.000000 66.324116
LeftHand -21.922324 -0.000000 -5.138426
LeftHandThumb1 -26.253704 0.000000 33.147579
RightShoulder -10.806031 3.932647 -25.548869
RightArm -36.429348 -15.118332 103.311326
RightForeArm 35.253308 0.000000 26.357233
RightHand -17.343667 -0.000000 -60.765772
RightHandThumb1 -24.326973 -0.000000 -32.862282
LeftUpLeg -59.023431 -8.112625 9.945955
LeftLeg 8.900096 -0.000000 -0.000000
LeftFoot 32.142143 -3.483712 -6.791369
LeftToeBase 17.240010 -0.000000 -0.000000
RightUpLeg -100.422125 25.529997 43.120112
RightLeg 101.234883 -0.000000 -0.000000
RightFoot 15.003584 -19.899061 6.436661
RightToeBase -7.495110 -0.000000 0.000000
2334
root -0.806301 2.500658 -7.783420 -33.671573 1.591805 -2.737449
Spine 37.002404 -7.753637 7.914691
Head 19.394462 18.003766 9.571810
LeftShoulder 5.381241 2.554923 22.840207
LeftArm 36.680469 6.075763 -62.387838
LeftForeArm 5.751804 -0.000000 66.193740
LeftHand -21.966127 -0.000000 -5.139540
LeftHandThumb1 -26.253704 0.000000 33.147579
RightShoulder -10.789816 3.948508 -25.508492
RightArm -36.442820 -15.120614 103.220465
RightForeArm 35.311352 -0.000000 26.330968
RightHand -17.276599 -0.000000 -60.773439
RightHandThumb1 -24.326973 -0.000000 -32.862282
LeftUpLeg -59.105168 -8.141545 10.032811
LeftLeg 9.030392 -0.000000 -0.000000
LeftFoot 32.193393 -3.451771 -6.765308
LeftToeBase 17.128640 -0.000000 -0.000000
RightUpLeg -100.364810 25.593084 43.261790
RightLeg 100.872041 -0.000000 -0.000000
RightFoot 14.496071 -20.299351 6.941129
RightToeBase -7.031750 -0.000000 0.000000
2335
root -0.798816 2.502429 -7.782449 -33.666525 1.520364 -2.822654
Spine 36.925221 -7.678863 7.999874
Head 19.494025 18.101890 9.526610
LeftShoulder 5.420858 2.493190 22.905837
LeftArm 36.671136 6.037122 -62.419051
LeftForeArm 6.022660 0.000000 66.087425
LeftHand -21.902517 -0.000000 -5.225757
LeftHandThumb1 -26.253704 0.000000 33.147579
RightShoulder -10.776558 3.967635 -25.433861
RightArm -36.489885 -15.093969 103.117578
RightForeArm 35.304191 -0.000000 26.311755
RightHand -17.279062 0.000000 -60.737082
RightHandThumb1 -24.326973 -0.000000 -32.862282
LeftUpLeg -59.178396 -8.121800 10.099692
LeftLeg 9.167136 -0.000000 -0.000000
LeftFoot 32.260433 -3.523012 -6.753407
LeftToeBase 17.025368 -0.000000 -0.000000
RightUpLeg -100.284448 25.651751 43.395317
RightLeg 100.578727 -0.000000 -0.000000
RightFoot 14.188572 -20.431365 7.173107
RightToeBase -6.512734 -0.000000 0.000000
2336
root -0.789152 2.503733 -7.781715 -33.645621 1.446575 -2.920929
Spine 36.832766 -7.622877 8.118777
Head 19.586900 18.117993 9.454192
LeftShoulder 5.411449 2.481903 22.945832
LeftArm 36.719058 6.065627 -62.456304
LeftForeArm 6.223666 -0.000000 65.986951
LeftHand -21.958409 0.000000 -5.095649
LeftHandThumb1 -26.253704 0.000000 33.147579
RightShoulder -10.773529 3.954946 -25.367062
RightArm -36.504478 -15.101073 103.000511
RightForeArm 35.352787 -0.000000 26.297730
RightHand -17.247005 -0.000000 -60.772687
RightHandThumb1 -24.326973 -0.000000 -32.862282
LeftUpLeg -59.278251 -8.112227 10.186533
LeftLeg 9.325980 -0.000000 -0.000000
LeftFoot 32.259126 -3.585392 -6.727033
LeftToeBase 16.970092 -0.000000 -0.000000
RightUpLeg -100.202644 25.714347 43.550870
RightLeg 100.347101 -0.000000 -0.000000
RightFoot 13.828645 -20.545043 7.611387
RightToeBase -6.431675 -0.000000 0.000000
